<?xml version="1.0" standalone="no"?>
<!DOCTYPE svg PUBLIC "-//W3C//DTD SVG 20010904//EN"
 "http://www.w3.org/TR/2001/REC-SVG-20010904/DTD/svg10.dtd">
<svg version="1.0" xmlns="http://www.w3.org/2000/svg"
 width="512.000000pt" height="512.000000pt" viewBox="0 0 512.000000 512.000000"
 preserveAspectRatio="xMidYMid meet">
<metadata>
Created by potrace 1.11, written by Peter Selinger 2001-2013
</metadata>
<g transform="translate(0.000000,512.000000) scale(0.100000,-0.100000)"
fill="#000000" stroke="none">
<path d="M3045 4476 c-16 -7 -37 -22 -47 -32 -14 -16 -580 -1068 -903 -1676
-49 -93 -89 -167 -90 -165 -1 1 -89 166 -195 367 -106 201 -201 380 -212 398
-37 60 -114 80 -173 44 -25 -16 -157 -255 -724 -1313 -381 -712 -695 -1308
-698 -1325 -7 -42 22 -101 61 -122 29 -16 191 -17 2496 -17 2305 0 2467 1
2496 17 39 21 68 80 61 122 -7 45 -607 1175 -630 1188 -10 5 -35 7 -54 3 -27
-5 -38 -13 -49 -42 -14 -33 -14 -37 17 -96 17 -34 143 -273 280 -532 136 -258
251 -478 254 -488 7 -16 -43 -17 -986 -15 l-994 3 -431 822 -431 822 61 115
c33 64 63 116 66 116 3 -1 36 -42 74 -91 142 -188 168 -183 402 79 91 103 169
188 173 190 4 1 148 -165 320 -368 173 -204 325 -380 339 -390 29 -24 91 -26
130 -6 15 8 106 105 202 215 96 110 177 201 180 201 3 0 36 -59 73 -130 68
-130 93 -160 133 -160 24 0 74 52 74 77 0 20 -29 76 -685 1318 -229 435 -426
804 -436 821 -20 33 -73 64 -106 64 -10 -1 -31 -7 -48 -14z m497 -1024 l418
-793 -176 -207 c-97 -114 -180 -207 -185 -207 -4 0 -139 155 -299 345 -356
422 -364 430 -423 430 -30 0 -54 -7 -76 -22 -17 -13 -102 -102 -187 -198 -85
-96 -158 -173 -162 -170 -7 4 -132 166 -145 187 -5 8 719 1378 779 1475 4 7
13 0 22 -18 8 -16 203 -386 434 -822z m-1607 -1041 l436 -824 -28 -30 c-15
-16 -63 -61 -106 -99 l-78 -71 -108 107 c-86 84 -114 106 -136 106 -39 0 -75
-36 -75 -75 0 -27 19 -50 133 -163 l134 -132 50 0 c55 0 65 7 212 142 40 38
76 67 78 65 2 -3 80 -148 172 -323 l169 -319 -127 -6 c-134 -7 -2491 -12
-2491 -5 0 3 559 1048 563 1053 1 1 43 -32 92 -74 142 -119 164 -133 204 -133
55 0 85 25 220 178 l125 141 93 -89 c72 -70 98 -90 120 -90 56 1 91 54 68 105
-13 30 -168 188 -215 219 -34 23 -101 21 -133 -4 -14 -11 -82 -83 -152 -160
l-126 -140 -110 92 c-78 65 -108 96 -104 107 4 9 130 248 282 531 152 283 301
561 331 618 31 56 59 101 64 100 4 -2 204 -374 443 -827z"/>
</g>
</svg>
